<svg width="50" height="50" viewBox="0 0 50 50" fill="none" xmlns="http://www.w3.org/2000/svg">
<path d="M32.5325 0H17.4805C13.8725 0 10.9375 2.93503 10.9375 6.54297V43.457C10.9375 47.065 13.8725 50 17.4805 50H32.5325C36.1404 50 39.0755 47.065 39.0755 43.457V6.54297C39.0755 2.93503 36.1404 0 32.5325 0ZM17.4805 47.0703C15.4881 47.0703 13.8672 45.4494 13.8672 43.457V40.0932H36.1458V43.457C36.1458 45.4494 34.5249 47.0703 32.5325 47.0703H17.4805ZM32.5325 2.92969C34.5089 2.92969 36.1191 4.52538 36.1446 6.49605H13.8683C13.8935 4.52538 15.5037 2.92969 17.4805 2.92969H32.5325ZM36.1458 9.42574V37.1635H13.8672V9.42574H36.1458Z" fill="#3CE800"/>
<path d="M25.0065 42.2852C24.6208 42.2852 24.2428 42.4416 23.9704 42.7139C23.6976 42.9874 23.5416 43.3643 23.5416 43.75C23.5416 44.1357 23.6976 44.5126 23.9704 44.7861C24.2439 45.0584 24.6208 45.2148 25.0065 45.2148C25.3921 45.2148 25.769 45.0584 26.0425 44.7861C26.3149 44.5126 26.4713 44.1357 26.4713 43.75C26.4713 43.3643 26.3149 42.9874 26.0425 42.7139C25.769 42.4416 25.3921 42.2852 25.0065 42.2852Z" fill="#3CE800"/>
</svg>
