<svg width="49" height="51" viewBox="0 0 49 51" fill="none" xmlns="http://www.w3.org/2000/svg">
<g clip-path="url(#clip0_106_46)">
<path d="M49.1382 24.2641C48.9918 17.7595 46.3563 11.698 41.7183 7.19632C37.0867 2.7015 31.0044 0.293817 24.5933 0.414068C18.1798 0.292299 12.0998 2.7015 7.46859 7.19632C2.83026 11.698 0.19515 17.7595 0.0483177 24.2637L0.0479431 24.2842V24.3046C0.0816545 30.9333 2.8842 37.2357 7.74989 41.6527V47.6626C7.74989 48.8291 8.5541 49.845 9.66171 50.0787C9.82577 50.1132 9.99095 50.1306 10.1554 50.1306C10.6011 50.1306 11.0394 50.0043 11.4252 49.7604L16.1946 46.7427C18.8844 47.6968 21.6911 48.1801 24.5446 48.1801H24.5805C24.7386 48.1831 24.8948 48.1846 25.0525 48.1846C31.2955 48.1842 37.1976 45.7849 41.7183 41.3978C46.3563 36.8961 48.9918 30.8346 49.1382 24.3304L49.139 24.2971L49.1382 24.2641ZM39.726 39.2924C35.6416 43.2566 30.2774 45.3775 24.6217 45.2644L24.606 45.2641H24.5903C21.9364 45.2701 19.3245 44.8024 16.831 43.8764C16.2145 43.6477 15.5429 43.7175 14.9881 44.0684L10.6292 46.8258V41.2977C10.6292 40.6808 10.3644 40.094 9.90255 39.6877C5.50471 35.8158 2.96324 30.2114 2.92765 24.31C3.06175 18.5902 5.3811 13.2612 9.46093 9.30167C13.5449 5.33793 18.9106 3.21778 24.5648 3.33007L24.5933 3.33045L24.6217 3.33007C30.2763 3.21892 35.6416 5.33793 39.726 9.30167C43.8021 13.2578 46.1214 18.5827 46.2589 24.2971C46.1214 30.0118 43.8021 35.3363 39.726 39.2924Z" fill="#3CE800"/>
<path d="M35.1416 17.3333H14.0449C13.2501 17.3333 12.6055 17.9857 12.6055 18.7911C12.6055 19.5964 13.2501 20.2493 14.0449 20.2493H35.1416C35.9368 20.2493 36.5814 19.5964 36.5814 18.7911C36.5814 17.9857 35.9368 17.3333 35.1416 17.3333Z" fill="#3CE800"/>
<path d="M35.1416 23.783H14.0449C13.2501 23.783 12.6055 24.4358 12.6055 25.2408C12.6055 26.0461 13.2501 26.699 14.0449 26.699H35.1416C35.9368 26.699 36.5814 26.0461 36.5814 25.2408C36.5814 24.4358 35.9368 23.783 35.1416 23.783Z" fill="#3CE800"/>
<path d="M35.1416 30.2324H24.7689C23.9741 30.2324 23.3295 30.8853 23.3295 31.6906C23.3295 32.4956 23.9741 33.1484 24.7689 33.1484H35.1416C35.9368 33.1484 36.5814 32.4956 36.5814 31.6906C36.5814 30.8853 35.9368 30.2324 35.1416 30.2324Z" fill="#3CE800"/>
</g>
<defs>
<clipPath id="clip0_106_46">
<rect width="49" height="49.7209" fill="white" transform="translate(0 0.409424)"/>
</clipPath>
</defs>
</svg>
