<svg width="50" height="50" viewBox="0 0 50 50" fill="none" xmlns="http://www.w3.org/2000/svg">
<g clip-path="url(#clip0_106_61)">
<path d="M50 15.9753C50.0016 15.5828 49.8455 15.2062 49.5669 14.9298L37.0397 2.50019C36.467 1.93202 35.5425 1.93368 34.9721 2.50429L31.3317 6.14472C29.2049 5.94325 27.0352 6.16718 25.0007 6.79872C22.9631 6.1664 20.7977 5.94267 18.6683 6.14472L15.0279 2.50439C14.4574 1.93388 13.5331 1.93202 12.9604 2.50028L0.433116 14.9298C0.154502 15.2062 -0.00145462 15.5829 1.02265e-05 15.9753C0.00147507 16.3677 0.160557 16.7432 0.441221 17.0174L4.16612 20.6565C3.96046 22.8433 4.20323 25.0762 4.87775 27.1597C5.30392 28.476 5.88771 29.7106 6.62052 30.8559L5.96974 31.5066C4.25636 33.22 4.25636 36.0079 5.96974 37.7214C6.37413 38.1259 6.83888 38.4335 7.33478 38.6471C6.3755 40.3252 6.61036 42.5052 8.04142 43.9362C9.48077 45.3756 11.6577 45.6034 13.3289 44.6451C13.5462 45.1473 13.8577 45.6093 14.2563 46.0078C15.9709 47.7225 18.7589 47.7199 20.471 46.0078L20.8569 45.6219L21.7514 46.5163C21.8006 46.5656 21.8526 46.6106 21.9067 46.6514C22.735 47.4726 23.8328 47.9248 25.0002 47.9248C26.1698 47.9248 27.2696 47.4709 28.0987 46.6466C28.9177 45.8529 28.6275 46.1379 29.1435 45.622C29.6521 46.1306 30.675 47.295 32.6368 47.295C33.8107 47.295 34.9142 46.8379 35.7442 46.0079C36.143 45.6091 36.4547 45.1467 36.672 44.6441C38.3562 45.6056 40.5323 45.363 41.959 43.9362C43.3901 42.5053 43.6249 40.3251 42.6656 38.6471C43.1615 38.4336 43.6262 38.1259 44.0306 37.7214C45.7482 36.004 45.7483 33.2242 44.0306 31.5066L43.377 30.853C45.292 27.8459 46.1691 24.2259 45.8341 20.6565L49.5592 17.0173C49.8396 16.7432 49.9985 16.3678 50 15.9753ZM8.04132 35.6499C7.47013 35.0787 7.47013 34.1494 8.04122 33.5782L8.434 33.1854C8.55812 33.318 8.684 33.4491 8.8131 33.5782L10.4988 35.264L10.1129 35.6499C9.54171 36.221 8.61251 36.2211 8.04132 35.6499ZM12.1845 41.8647C11.6119 42.4372 10.6855 42.4372 10.1129 41.8647C9.54034 41.2921 9.54034 40.3657 10.1129 39.7931L12.5704 37.3355L14.6421 39.4071L12.1845 41.8647ZM18.3992 43.9363C17.8279 44.5074 16.8987 44.5074 16.3277 43.9363C16.051 43.6597 15.8985 43.2918 15.8985 42.9006C15.8985 42.5093 16.051 42.1415 16.3277 41.8647C16.3277 41.8647 16.3277 41.8646 16.3278 41.8645L16.7136 41.4788L18.7852 43.5504L18.3992 43.9363ZM41.9587 35.6501C41.3874 36.2212 40.4582 36.2212 39.8871 35.6501C39.8871 35.6501 39.8871 35.6501 39.887 35.65L29.5291 25.2919C28.9571 24.7198 28.0296 24.7198 27.4575 25.2919C26.8855 25.864 26.8855 26.7914 27.4575 27.3635L39.8871 39.7931C40.4583 40.3642 40.4583 41.2935 39.8871 41.8646C39.316 42.4359 38.3867 42.4358 37.8154 41.8646C37.1306 41.1798 26.1173 30.1665 25.3859 29.4351C24.8139 28.863 23.8863 28.863 23.3143 29.4351C22.7422 30.0071 22.7422 30.9346 23.3143 31.5066L33.6732 41.8656C34.2446 42.4381 34.2448 43.3637 33.6723 43.9363C33.0998 44.5088 32.1732 44.5088 31.6006 43.9363L21.2427 33.5783C20.6707 33.0062 19.7432 33.0062 19.1711 33.5783C18.599 34.1504 18.599 35.0778 19.1711 35.6499L27.0716 43.5504C26.596 44.026 26.8105 43.8151 26.0522 44.5499C26.0466 44.5553 26.0412 44.5606 26.0358 44.5661C25.7591 44.8428 25.3911 44.9952 25 44.9952C24.6087 44.9952 24.2409 44.8428 23.9644 44.5662C23.9589 44.5607 23.9534 44.5554 23.9479 44.55C23.0765 43.7057 11.8192 32.4411 10.8847 31.5067C7.92462 28.5468 6.56534 24.4687 7.15519 20.3183C7.22091 19.8563 7.06241 19.3906 6.72862 19.0644L3.55275 15.9616L13.988 5.60761L17.0987 8.71835C17.4244 9.04413 17.8846 9.19774 18.3406 9.1328C19.0602 9.03056 19.7876 8.98983 20.5132 9.00692C19.7663 9.53505 19.0604 10.1296 18.3993 10.7907C16.5913 12.5988 11.6994 17.4906 10.1129 19.0771C8.39542 20.7947 8.39513 23.5743 10.1129 25.292C10.9695 26.1487 12.0949 26.577 13.2202 26.577C14.3456 26.577 15.471 26.1487 16.3277 25.292L22.2045 19.4152C24.121 20.098 26.1693 20.1805 28.0902 19.71L41.9587 33.5785C42.5313 34.1511 42.5313 35.0774 41.9587 35.6501ZM43.2714 19.0643C42.9376 19.3905 42.7791 19.8561 42.8448 20.3183C43.2571 23.2194 42.6767 26.199 41.2435 28.7198L31.0146 18.4909C31.6897 18.0769 32.324 17.5818 32.9005 17.0055C33.4726 16.4334 33.4726 15.5059 32.9005 14.9339C32.3285 14.3618 31.401 14.3618 30.8289 14.9339C28.6373 17.1255 25.287 17.7011 22.4918 16.3659C21.9319 16.0984 21.2636 16.2129 20.8246 16.6519L14.2562 23.2204C13.6851 23.7916 12.756 23.7917 12.1845 23.2204C11.9078 22.9437 11.7554 22.5759 11.7554 22.1846C11.7554 21.7934 11.9078 21.4255 12.1845 21.1488C13.8979 19.4354 18.7757 14.5576 20.4709 12.8624C20.471 12.8623 20.4711 12.8621 20.4713 12.862C23.4121 9.92147 27.4857 8.53974 31.6595 9.1328C32.1152 9.19765 32.5757 9.04413 32.9014 8.71835L36.0121 5.60761L46.4473 15.9616L43.2714 19.0643Z" fill="#3CE800"/>
</g>
<defs>
<clipPath id="clip0_106_61">
<rect width="50" height="50" fill="white"/>
</clipPath>
</defs>
</svg>
